<svg width="702" height="200" viewBox="0 0 702 200" fill="none" xmlns="http://www.w3.org/2000/svg">
<g filter="url(#filter0_f_16_6)">
<rect x="4" y="4" width="659.905" height="192" fill="#FDDC2B"/>
</g>
<path d="M40.5608 161.313C39.9045 160.094 39.1702 158.578 38.3577 156.766C37.5764 154.922 36.7639 153.016 35.9202 151.047C35.0764 149.047 34.1858 147.094 33.2483 145.188C32.342 143.282 31.4202 141.625 30.4827 140.219C30.1077 139.938 29.592 139.766 28.9358 139.703C28.2795 139.641 27.592 139.625 26.8733 139.657C26.1545 139.657 25.4358 139.641 24.717 139.61C24.0295 139.547 23.4202 139.375 22.8889 139.094C22.3889 138.813 22.0139 138.375 21.7639 137.782C21.5139 137.188 21.467 136.328 21.6233 135.203H29.4983C29.6545 133.453 29.9202 131.719 30.2952 130C30.6702 128.282 31.1702 126.641 31.7952 125.078C32.4514 123.516 33.2327 122.063 34.1389 120.719C35.0452 119.375 36.1389 118.219 37.4202 117.25C38.7014 116.282 40.1702 115.516 41.8264 114.953C43.5139 114.391 45.4202 114.11 47.5452 114.11C48.2952 114.11 49.0452 114.297 49.7952 114.672C50.5452 115.016 51.217 115.485 51.8108 116.078C52.4045 116.672 52.8733 117.344 53.217 118.094C53.592 118.844 53.7795 119.594 53.7795 120.344C53.1858 120.344 52.6545 120.235 52.1858 120.016C51.717 119.766 51.2639 119.5 50.8264 119.219C50.3889 118.907 49.9202 118.625 49.4202 118.375C48.9202 118.094 48.3577 117.953 47.7327 117.953C45.8577 117.953 44.1077 118.328 42.4827 119.078C40.8889 119.828 39.4827 120.828 38.2639 122.078C37.0764 123.328 36.1389 124.782 35.4514 126.438C34.7639 128.094 34.4202 129.844 34.4202 131.688C34.4202 131.813 34.4202 132.047 34.4202 132.391C34.4514 132.703 34.467 133.047 34.467 133.422C34.467 133.797 34.467 134.157 34.467 134.5C34.4983 134.844 34.5139 135.078 34.5139 135.203C35.6702 135.578 36.967 135.86 38.4045 136.047C39.842 136.235 41.2795 136.36 42.717 136.422C44.1858 136.453 45.592 136.438 46.9358 136.375C48.3108 136.313 49.5295 136.235 50.592 136.141C50.6858 136.235 50.8577 136.407 51.1077 136.657C51.3577 136.907 51.4983 137.094 51.5295 137.219C51.5295 137.313 51.5452 137.375 51.5764 137.407C51.6389 137.594 51.6702 137.688 51.6702 137.688C51.6702 138.344 51.3264 138.86 50.6389 139.235C49.9514 139.61 49.0764 139.891 48.0139 140.078C46.9514 140.235 45.7639 140.344 44.4514 140.407C43.1702 140.469 41.9202 140.532 40.7014 140.594C39.5139 140.625 38.4358 140.688 37.467 140.782C36.5295 140.844 35.8733 140.985 35.4983 141.203C35.9045 143.078 36.6233 144.891 37.6545 146.641C38.717 148.391 39.7952 150.141 40.8889 151.891C41.9827 153.641 42.9514 155.407 43.7952 157.188C44.6389 158.969 45.0608 160.797 45.0608 162.672C44.9358 162.672 44.6389 162.672 44.1702 162.672C43.7327 162.703 43.2639 162.688 42.7639 162.625C42.2639 162.563 41.7795 162.422 41.3108 162.203C40.8733 162.016 40.6233 161.719 40.5608 161.313ZM53.6164 137.266C53.6164 136.985 53.632 136.703 53.6633 136.422C53.6945 136.11 53.757 135.844 53.8508 135.625C53.9445 135.375 54.0852 135.172 54.2727 135.016C54.4914 134.86 54.7883 134.782 55.1633 134.782C55.4758 134.782 55.8195 135.032 56.1945 135.532C56.6008 136 57.007 136.61 57.4133 137.36C57.8195 138.078 58.2102 138.875 58.5852 139.75C58.9914 140.625 59.3352 141.438 59.6164 142.188C59.9289 142.907 60.1789 143.532 60.3664 144.063C60.5539 144.594 60.6633 144.875 60.6945 144.907C61.1008 143.813 61.5539 142.625 62.0539 141.344C62.5539 140.063 63.1633 138.875 63.882 137.782C64.632 136.657 65.507 135.719 66.507 134.969C67.5383 134.219 68.7883 133.844 70.257 133.844C71.007 133.844 71.7102 133.969 72.3664 134.219C73.0539 134.438 73.6477 134.782 74.1477 135.25C74.6789 135.688 75.1008 136.219 75.4133 136.844C75.7258 137.469 75.882 138.188 75.882 139C75.882 139.688 75.6008 140.172 75.0383 140.453C74.507 140.735 73.8977 140.875 73.2102 140.875H72.7414L70.7258 138.86C70.6633 138.86 70.6164 138.844 70.5852 138.813C70.5227 138.813 70.4602 138.813 70.3977 138.813C70.3664 138.782 70.3195 138.766 70.257 138.766C69.1633 138.766 68.3039 139.078 67.6789 139.703C67.0852 140.297 66.632 141.047 66.3195 141.953C66.007 142.828 65.8039 143.766 65.7102 144.766C65.6477 145.735 65.6164 146.625 65.6164 147.438C65.6164 148.063 65.6789 148.703 65.8039 149.36C65.9289 149.985 66.0695 150.61 66.2258 151.235C66.382 151.828 66.5227 152.453 66.6477 153.11C66.7727 153.735 66.8352 154.391 66.8352 155.078C66.8352 156.391 66.132 157.047 64.7258 157.047C63.9445 157.047 63.132 156.641 62.2883 155.828C61.4445 154.985 60.6008 153.922 59.757 152.641C58.9445 151.36 58.1633 149.953 57.4133 148.422C56.6633 146.86 56.007 145.344 55.4445 143.875C54.882 142.407 54.4289 141.078 54.0852 139.891C53.7727 138.703 53.6164 137.828 53.6164 137.266ZM76.6095 147.438C76.6095 145.5 77.0627 143.703 77.9689 142.047C78.8752 140.36 80.0627 138.922 81.5314 137.735C83.0314 136.516 84.7033 135.563 86.547 134.875C88.422 134.188 90.3127 133.844 92.2189 133.844C93.2814 133.844 94.2189 134.188 95.0314 134.875C95.8752 135.563 96.5783 136.407 97.1408 137.407C97.7033 138.375 98.1252 139.407 98.4064 140.5C98.7189 141.594 98.8752 142.547 98.8752 143.36C98.8752 145.11 98.4533 146.813 97.6095 148.469C96.7658 150.094 95.672 151.547 94.3283 152.828C92.9845 154.078 91.4689 155.094 89.7814 155.875C88.0939 156.657 86.4064 157.047 84.7189 157.047C83.2189 157.047 81.9533 156.797 80.922 156.297C79.8908 155.766 79.0627 155.078 78.4377 154.235C77.8127 153.36 77.3439 152.344 77.0314 151.188C76.7502 150 76.6095 148.75 76.6095 147.438ZM80.5939 147.907C80.5939 148.719 80.6564 149.438 80.7814 150.063C80.9377 150.657 81.1877 151.172 81.5314 151.61C81.9064 152.047 82.3908 152.391 82.9845 152.641C83.5783 152.86 84.3127 152.969 85.1877 152.969C86.3439 152.969 87.5002 152.657 88.6564 152.032C89.8127 151.375 90.8439 150.563 91.7502 149.594C92.6877 148.594 93.4377 147.5 94.0002 146.313C94.5627 145.125 94.8439 143.969 94.8439 142.844C94.8439 142.344 94.797 141.797 94.7033 141.203C94.6095 140.61 94.4533 140.063 94.2345 139.563C94.0158 139.063 93.7033 138.641 93.297 138.297C92.8908 137.953 92.3752 137.782 91.7502 137.782C91.1877 137.782 90.5158 137.969 89.7345 138.344C88.9845 138.719 88.1877 139.203 87.3439 139.797C86.5314 140.391 85.7189 141.063 84.9064 141.813C84.1252 142.563 83.4064 143.313 82.7502 144.063C82.0939 144.813 81.5627 145.532 81.1564 146.219C80.7814 146.907 80.5939 147.469 80.5939 147.907ZM99.7433 141.157C99.7433 140.344 99.9464 139.766 100.353 139.422C100.759 139.047 101.415 138.86 102.321 138.86H102.79C102.884 139.36 102.993 139.938 103.118 140.594C103.243 141.25 103.431 141.922 103.681 142.61C103.931 143.297 104.228 143.938 104.571 144.532C104.915 145.094 105.337 145.547 105.837 145.891C105.868 144.797 106.134 143.75 106.634 142.75C107.165 141.719 107.806 140.813 108.556 140.032C109.337 139.219 110.181 138.547 111.087 138.016C112.025 137.453 112.946 137.078 113.853 136.891H114.884C116.384 136.891 117.665 137.235 118.728 137.922C119.79 138.578 120.665 139.453 121.353 140.547C122.071 141.61 122.618 142.828 122.993 144.203C123.368 145.578 123.65 146.985 123.837 148.422C124.056 149.828 124.181 151.203 124.212 152.547C124.275 153.86 124.306 154.985 124.306 155.922H120.884C120.696 154.047 120.462 152.25 120.181 150.532C120.087 149.844 119.962 149.125 119.806 148.375C119.65 147.594 119.478 146.875 119.29 146.219C119.103 145.532 118.9 144.907 118.681 144.344C118.462 143.75 118.212 143.25 117.931 142.844C117.806 142.719 117.634 142.547 117.415 142.328C117.228 142.11 117.025 141.891 116.806 141.672C116.587 141.453 116.384 141.266 116.196 141.11C116.009 140.953 115.9 140.875 115.868 140.875C114.931 140.625 114.118 140.813 113.431 141.438C112.743 142.032 112.134 142.844 111.603 143.875C111.071 144.907 110.634 146.078 110.29 147.391C109.978 148.703 109.712 149.969 109.493 151.188C109.275 152.375 109.118 153.422 109.025 154.328C108.931 155.203 108.868 155.735 108.837 155.922C108.056 156.485 107.321 156.657 106.634 156.438C105.946 156.188 105.29 155.688 104.665 154.938C104.071 154.188 103.525 153.25 103.025 152.125C102.556 151 102.118 149.813 101.712 148.563C101.306 147.282 100.931 146 100.587 144.719C100.275 143.438 99.9933 142.25 99.7433 141.157ZM124.893 133.328C124.893 133.235 124.908 133.157 124.94 133.094C124.94 133.032 124.955 132.953 124.986 132.86C125.111 132.703 125.299 132.5 125.549 132.25C125.799 132 125.955 131.875 126.018 131.875H135.44C135.44 131.532 135.393 130.985 135.299 130.235C135.205 129.485 135.111 128.657 135.018 127.75C134.955 126.844 134.94 125.907 134.971 124.938C135.002 123.938 135.127 123.047 135.346 122.266C135.596 121.453 135.971 120.797 136.471 120.297C137.002 119.766 137.736 119.5 138.674 119.5C138.674 122.657 138.893 125.188 139.33 127.094C139.768 129 140.346 130.469 141.065 131.5C141.815 132.532 142.658 133.203 143.596 133.516C144.533 133.828 145.486 133.969 146.455 133.938C147.455 133.875 148.424 133.719 149.361 133.469C150.299 133.219 151.127 133.047 151.846 132.953C152.596 132.86 153.19 132.938 153.627 133.188C154.065 133.407 154.283 133.953 154.283 134.828C154.283 135.485 154.127 135.953 153.815 136.235C153.533 136.516 152.971 136.735 152.127 136.891C151.877 136.922 151.455 136.985 150.861 137.078C150.299 137.141 149.658 137.203 148.94 137.266C148.221 137.328 147.455 137.407 146.643 137.5C145.83 137.563 145.065 137.625 144.346 137.688C143.627 137.75 142.971 137.797 142.377 137.828C141.783 137.828 141.346 137.828 141.065 137.828C141.065 137.985 141.049 138.25 141.018 138.625C140.986 139 140.971 139.25 140.971 139.375C140.971 140.75 141.19 142.094 141.627 143.407C142.065 144.688 142.533 145.969 143.033 147.25C143.565 148.532 144.049 149.813 144.486 151.094C144.924 152.375 145.143 153.703 145.143 155.078C145.143 155.328 145.111 155.594 145.049 155.875C145.018 156.125 144.924 156.36 144.768 156.578C144.643 156.766 144.44 156.907 144.158 157C143.908 157.125 143.549 157.11 143.08 156.953C141.893 156.641 141.002 155.969 140.408 154.938C139.846 153.907 139.424 152.688 139.143 151.282C138.861 149.844 138.674 148.328 138.58 146.735C138.486 145.141 138.33 143.657 138.111 142.282C137.924 140.875 137.611 139.688 137.174 138.719C136.736 137.719 136.033 137.11 135.065 136.891L126.018 134.828C125.893 134.828 125.705 134.703 125.455 134.453C125.205 134.172 125.049 133.969 124.986 133.844C124.955 133.782 124.94 133.703 124.94 133.61C124.908 133.547 124.893 133.453 124.893 133.328ZM157.73 141.719C157.73 141.625 157.745 141.453 157.776 141.203C157.808 140.922 157.823 140.766 157.823 140.735C158.323 140.735 158.995 140.703 159.839 140.641C160.714 140.547 161.667 140.469 162.698 140.407C163.73 140.313 164.792 140.219 165.886 140.125C167.011 140.032 168.073 139.969 169.073 139.938C170.073 139.907 170.995 139.891 171.839 139.891C172.683 139.891 173.339 139.938 173.808 140.032C174.37 140.032 174.761 140.094 174.98 140.219C175.23 140.344 175.355 140.766 175.355 141.485C174.417 142.11 173.245 142.578 171.839 142.891C170.433 143.172 168.995 143.375 167.526 143.5C166.058 143.625 164.62 143.688 163.214 143.688C161.839 143.688 160.714 143.703 159.839 143.735C158.995 143.797 158.433 143.625 158.151 143.219C157.87 142.813 157.73 142.313 157.73 141.719ZM180.348 119.782C180.191 119.782 179.957 119.75 179.645 119.688C179.363 119.594 179.066 119.5 178.754 119.407C178.441 119.282 178.145 119.172 177.863 119.078C177.582 118.953 177.395 118.86 177.301 118.797C177.27 118.735 177.254 118.672 177.254 118.61C177.223 118.547 177.207 118.469 177.207 118.375C177.207 117.938 177.379 117.563 177.723 117.25C178.066 116.938 178.457 116.688 178.895 116.5C179.363 116.282 179.816 116.125 180.254 116.032C180.691 115.907 181.035 115.828 181.285 115.797H181.848H182.316C183.066 115.86 184.02 115.953 185.176 116.078C186.332 116.203 187.551 116.344 188.832 116.5C190.145 116.625 191.457 116.766 192.77 116.922C194.113 117.047 195.316 117.188 196.379 117.344C197.473 117.469 198.379 117.578 199.098 117.672C199.848 117.735 200.285 117.766 200.41 117.766C200.66 117.797 200.973 117.86 201.348 117.953C201.754 118.016 202.16 118.141 202.566 118.328C202.973 118.485 203.348 118.688 203.691 118.938C204.035 119.157 204.285 119.438 204.441 119.782C204.191 120.282 203.973 120.672 203.785 120.953C203.598 121.203 203.395 121.407 203.176 121.563C202.957 121.688 202.723 121.75 202.473 121.75C202.254 121.75 201.973 121.75 201.629 121.75C200.316 121.75 198.988 121.703 197.645 121.61C196.332 121.516 195.02 121.422 193.707 121.328C192.395 121.235 191.066 121.141 189.723 121.047C188.41 120.953 187.082 120.907 185.738 120.907C185.738 121.469 185.66 122.313 185.504 123.438C185.379 124.563 185.27 125.75 185.176 127C185.113 128.25 185.145 129.5 185.27 130.75C185.426 131.969 185.785 133 186.348 133.844C187.441 133.188 188.582 132.844 189.77 132.813C190.957 132.782 192.16 132.766 193.379 132.766C193.91 132.766 194.582 132.766 195.395 132.766C196.207 132.766 196.988 132.86 197.738 133.047C198.52 133.235 199.176 133.547 199.707 133.985C200.238 134.422 200.504 135.078 200.504 135.953C200.504 136.578 200.379 137.047 200.129 137.36C199.879 137.672 199.301 137.828 198.395 137.828C198.301 137.828 198.098 137.782 197.785 137.688C197.504 137.594 197.191 137.485 196.848 137.36C196.535 137.235 196.238 137.125 195.957 137.032C195.676 136.938 195.488 136.891 195.395 136.891C195.363 136.891 195.238 136.891 195.02 136.891C194.832 136.86 194.598 136.844 194.316 136.844C194.035 136.844 193.754 136.844 193.473 136.844C193.223 136.813 193.02 136.797 192.863 136.797C192.145 136.797 191.441 136.844 190.754 136.938C190.098 137.032 189.52 137.219 189.02 137.5C188.52 137.782 188.113 138.188 187.801 138.719C187.52 139.25 187.379 139.938 187.379 140.782C187.379 141.063 187.41 141.547 187.473 142.235C187.535 142.922 187.613 143.688 187.707 144.532C187.832 145.344 187.988 146.188 188.176 147.063C188.363 147.938 188.613 148.75 188.926 149.5C189.238 150.219 189.582 150.828 189.957 151.328C190.363 151.797 190.848 152.032 191.41 152.032C191.473 152.032 191.629 152.016 191.879 151.985C192.129 151.953 192.285 151.938 192.348 151.938C193.41 151.219 194.473 150.438 195.535 149.594C196.629 148.75 197.754 147.969 198.91 147.25C200.066 146.5 201.27 145.875 202.52 145.375C203.77 144.844 205.066 144.578 206.41 144.578V146.875C206.41 147 206.098 147.344 205.473 147.907C204.879 148.469 204.082 149.125 203.082 149.875C202.113 150.625 201.02 151.422 199.801 152.266C198.582 153.11 197.363 153.891 196.145 154.61C194.926 155.297 193.754 155.875 192.629 156.344C191.535 156.813 190.613 157.047 189.863 157.047C188.801 157.047 187.848 156.578 187.004 155.641C186.191 154.672 185.457 153.407 184.801 151.844C184.145 150.25 183.598 148.422 183.16 146.36C182.723 144.297 182.332 142.172 181.988 139.985C181.676 137.797 181.41 135.625 181.191 133.469C181.004 131.282 180.848 129.266 180.723 127.422C180.598 125.578 180.504 123.985 180.441 122.641C180.41 121.266 180.379 120.313 180.348 119.782ZM208.403 141.157C208.403 140.344 208.606 139.766 209.013 139.422C209.419 139.047 210.075 138.86 210.981 138.86H211.45C211.544 139.36 211.653 139.938 211.778 140.594C211.903 141.25 212.091 141.922 212.341 142.61C212.591 143.297 212.888 143.938 213.231 144.532C213.575 145.094 213.997 145.547 214.497 145.891C214.528 144.797 214.794 143.75 215.294 142.75C215.825 141.719 216.466 140.813 217.216 140.032C217.997 139.219 218.841 138.547 219.747 138.016C220.685 137.453 221.606 137.078 222.513 136.891H223.544C225.044 136.891 226.325 137.235 227.388 137.922C228.45 138.578 229.325 139.453 230.013 140.547C230.731 141.61 231.278 142.828 231.653 144.203C232.028 145.578 232.31 146.985 232.497 148.422C232.716 149.828 232.841 151.203 232.872 152.547C232.935 153.86 232.966 154.985 232.966 155.922H229.544C229.356 154.047 229.122 152.25 228.841 150.532C228.747 149.844 228.622 149.125 228.466 148.375C228.31 147.594 228.138 146.875 227.95 146.219C227.763 145.532 227.56 144.907 227.341 144.344C227.122 143.75 226.872 143.25 226.591 142.844C226.466 142.719 226.294 142.547 226.075 142.328C225.888 142.11 225.685 141.891 225.466 141.672C225.247 141.453 225.044 141.266 224.856 141.11C224.669 140.953 224.56 140.875 224.528 140.875C223.591 140.625 222.778 140.813 222.091 141.438C221.403 142.032 220.794 142.844 220.263 143.875C219.731 144.907 219.294 146.078 218.95 147.391C218.638 148.703 218.372 149.969 218.153 151.188C217.935 152.375 217.778 153.422 217.685 154.328C217.591 155.203 217.528 155.735 217.497 155.922C216.716 156.485 215.981 156.657 215.294 156.438C214.606 156.188 213.95 155.688 213.325 154.938C212.731 154.188 212.185 153.25 211.685 152.125C211.216 151 210.778 149.813 210.372 148.563C209.966 147.282 209.591 146 209.247 144.719C208.935 143.438 208.653 142.25 208.403 141.157ZM233.553 151.422C233.553 149.61 234.006 148 234.912 146.594C235.818 145.188 236.943 143.969 238.287 142.938C239.631 141.875 241.084 140.985 242.646 140.266C244.209 139.516 245.662 138.907 247.006 138.438C248.35 137.938 249.475 137.547 250.381 137.266C251.287 136.953 251.74 136.703 251.74 136.516C251.74 135.422 251.678 134.36 251.553 133.328C251.459 132.266 251.35 131.203 251.225 130.141C251.1 129.078 250.975 128.032 250.85 127C250.756 125.938 250.709 124.891 250.709 123.86V120.813C251.99 120.344 252.896 120.391 253.428 120.953C253.99 121.516 254.084 122.485 253.709 123.86C253.834 124.547 254.006 125.625 254.225 127.094C254.443 128.563 254.678 130.219 254.928 132.063C255.209 133.907 255.49 135.844 255.771 137.875C256.084 139.907 256.365 141.86 256.615 143.735C256.896 145.578 257.131 147.235 257.318 148.703C257.506 150.141 257.646 151.219 257.74 151.938C257.771 152.094 257.803 152.407 257.834 152.875C257.865 153.313 257.881 153.797 257.881 154.328C257.912 154.828 257.928 155.297 257.928 155.735C257.959 156.172 257.975 156.485 257.975 156.672C256.787 156.672 255.975 156.625 255.537 156.532C255.131 156.438 254.865 156.25 254.74 155.969C254.646 155.688 254.6 155.282 254.6 154.75C254.6 154.219 254.443 153.485 254.131 152.547C252.975 153.453 251.881 154.203 250.85 154.797C249.818 155.391 248.787 155.875 247.756 156.25C246.725 156.594 245.678 156.828 244.615 156.953C243.584 157.11 242.475 157.188 241.287 157.188C240.287 157.188 239.318 157.11 238.381 156.953C237.475 156.766 236.662 156.453 235.943 156.016C235.225 155.578 234.646 154.985 234.209 154.235C233.771 153.485 233.553 152.547 233.553 151.422ZM237.631 150.438C237.631 150.938 237.74 151.344 237.959 151.657C238.178 151.969 238.459 152.235 238.803 152.453C239.146 152.672 239.506 152.828 239.881 152.922C240.287 152.985 240.678 153.016 241.053 153.016C242.146 153.016 243.318 152.813 244.568 152.407C245.85 151.969 247.021 151.375 248.084 150.625C249.178 149.844 250.068 148.922 250.756 147.86C251.475 146.797 251.834 145.641 251.834 144.391C251.834 143.422 251.662 142.75 251.318 142.375C250.975 142 250.318 141.813 249.35 141.813C248.35 141.813 247.178 142.047 245.834 142.516C244.521 142.985 243.24 143.61 241.99 144.391C240.771 145.172 239.74 146.094 238.896 147.157C238.053 148.188 237.631 149.282 237.631 150.438ZM280.523 125.172C280.523 123.86 280.898 122.782 281.648 121.938C282.43 121.094 283.383 120.438 284.508 119.969C285.664 119.469 286.898 119.141 288.211 118.985C289.523 118.797 290.711 118.703 291.773 118.703C293.805 118.703 295.508 119.11 296.883 119.922C298.289 120.703 299.414 121.75 300.258 123.063C301.133 124.375 301.758 125.891 302.133 127.61C302.508 129.328 302.695 131.078 302.695 132.86C302.695 134.047 302.57 135.453 302.32 137.078C302.07 138.672 301.695 140.328 301.195 142.047C300.695 143.735 300.07 145.422 299.32 147.11C298.601 148.766 297.758 150.266 296.789 151.61C295.82 152.922 294.726 153.985 293.508 154.797C292.32 155.61 291.008 156.016 289.57 156.016C289.289 156.016 288.945 155.641 288.539 154.891C288.164 154.11 287.726 153.078 287.226 151.797C286.758 150.516 286.258 149.047 285.726 147.391C285.226 145.703 284.726 143.969 284.226 142.188C283.726 140.375 283.258 138.563 282.82 136.75C282.383 134.938 281.976 133.266 281.601 131.735C281.258 130.203 280.992 128.86 280.805 127.703C280.617 126.547 280.523 125.703 280.523 125.172ZM284.414 127.844C284.414 128.844 284.476 129.985 284.601 131.266C284.758 132.547 284.976 133.875 285.258 135.25C285.57 136.625 285.945 138.016 286.383 139.422C286.851 140.797 287.383 142.094 287.976 143.313C288.57 144.532 289.242 145.641 289.992 146.641C290.742 147.61 291.586 148.375 292.523 148.938C293.586 147.438 294.508 146.094 295.289 144.907C296.07 143.719 296.711 142.532 297.211 141.344C297.711 140.157 298.07 138.891 298.289 137.547C298.539 136.203 298.664 134.641 298.664 132.86C298.664 131.578 298.586 130.328 298.43 129.11C298.273 127.891 297.93 126.813 297.398 125.875C296.898 124.907 296.18 124.141 295.242 123.578C294.305 122.985 293.07 122.688 291.539 122.688C290.289 122.688 289.07 122.891 287.883 123.297C286.726 123.672 285.601 124.172 284.508 124.797C284.508 124.891 284.492 125.078 284.461 125.36C284.461 125.641 284.461 125.953 284.461 126.297C284.461 126.61 284.445 126.922 284.414 127.235C284.414 127.516 284.414 127.719 284.414 127.844ZM303.563 143.922C303.563 142.235 303.766 140.547 304.173 138.86C304.579 137.172 305.22 135.657 306.095 134.313C307.001 132.969 308.157 131.875 309.563 131.032C311.001 130.188 312.735 129.766 314.766 129.766C315.923 129.766 316.938 129.985 317.813 130.422C318.688 130.828 319.423 131.375 320.016 132.063C320.61 132.75 321.048 133.563 321.329 134.5C321.641 135.407 321.798 136.36 321.798 137.36C321.798 138.953 321.423 140.5 320.673 142C319.954 143.5 318.97 144.828 317.72 145.985C316.501 147.11 315.095 147.969 313.501 148.563C311.907 149.125 310.282 149.25 308.626 148.938C308.657 149.844 308.954 150.578 309.516 151.141C310.11 151.672 310.813 152.078 311.626 152.36C312.438 152.641 313.282 152.828 314.157 152.922C315.032 152.985 315.813 153.016 316.501 153.016C317.22 153.016 317.891 152.953 318.516 152.828C319.141 152.703 319.766 152.563 320.391 152.407C321.016 152.25 321.641 152.11 322.266 151.985C322.923 151.86 323.61 151.797 324.329 151.797C324.61 151.797 324.891 151.813 325.173 151.844C325.454 151.875 325.72 151.953 325.97 152.078C326.22 152.172 326.423 152.344 326.579 152.594C326.735 152.813 326.813 153.094 326.813 153.438C326.813 154.032 326.595 154.532 326.157 154.938C325.72 155.313 325.157 155.641 324.47 155.922C323.813 156.203 323.079 156.422 322.266 156.578C321.454 156.703 320.657 156.813 319.876 156.907C319.126 156.969 318.423 157 317.766 157C317.141 157.032 316.673 157.047 316.36 157.047C314.36 157.047 312.563 156.735 310.97 156.11C309.376 155.453 308.032 154.563 306.938 153.438C305.845 152.282 305.001 150.907 304.407 149.313C303.845 147.688 303.563 145.891 303.563 143.922ZM308.532 140.875C308.532 141.969 308.673 142.766 308.954 143.266C309.266 143.766 310.001 144.016 311.157 144.016C311.97 144.016 312.766 143.875 313.548 143.594C314.329 143.282 315.032 142.86 315.657 142.328C316.313 141.797 316.829 141.172 317.204 140.453C317.579 139.735 317.766 138.953 317.766 138.11C317.766 137.641 317.72 137.157 317.626 136.657C317.563 136.157 317.407 135.703 317.157 135.297C316.907 134.86 316.579 134.516 316.173 134.266C315.798 133.985 315.298 133.844 314.673 133.844C313.735 133.844 312.876 134.063 312.095 134.5C311.345 134.907 310.704 135.453 310.173 136.141C309.641 136.797 309.235 137.547 308.954 138.391C308.673 139.203 308.532 140.032 308.532 140.875ZM328.478 132.532C328.697 131.782 328.947 131.438 329.228 131.5C329.541 131.563 329.916 131.922 330.353 132.578C330.791 133.235 331.275 134.11 331.806 135.203C332.369 136.297 332.963 137.485 333.588 138.766C334.213 140.016 334.885 141.297 335.603 142.61C336.353 143.922 337.119 145.125 337.9 146.219C338.713 147.313 339.556 148.219 340.431 148.938C341.338 149.657 342.26 150.078 343.197 150.203L346.947 130.797C347.01 130.266 347.244 129.969 347.65 129.907C348.088 129.813 348.51 129.766 348.916 129.766C350.322 129.766 351.025 130.422 351.025 131.735C351.025 132.422 350.963 133.516 350.838 135.016C350.713 136.516 350.51 138.172 350.228 139.985C349.947 141.766 349.603 143.61 349.197 145.516C348.791 147.391 348.306 149.11 347.744 150.672C347.181 152.235 346.525 153.516 345.775 154.516C345.056 155.516 344.26 156.016 343.385 156.016C342.103 156.016 340.838 155.594 339.588 154.75C338.338 153.875 337.15 152.75 336.025 151.375C334.931 149.969 333.916 148.407 332.978 146.688C332.072 144.969 331.275 143.25 330.588 141.532C329.931 139.782 329.416 138.11 329.041 136.516C328.666 134.922 328.478 133.594 328.478 132.532ZM352.878 143.922C352.878 142.235 353.081 140.547 353.487 138.86C353.893 137.172 354.534 135.657 355.409 134.313C356.315 132.969 357.471 131.875 358.878 131.032C360.315 130.188 362.05 129.766 364.081 129.766C365.237 129.766 366.253 129.985 367.128 130.422C368.003 130.828 368.737 131.375 369.331 132.063C369.925 132.75 370.362 133.563 370.643 134.5C370.956 135.407 371.112 136.36 371.112 137.36C371.112 138.953 370.737 140.5 369.987 142C369.268 143.5 368.284 144.828 367.034 145.985C365.815 147.11 364.409 147.969 362.815 148.563C361.221 149.125 359.596 149.25 357.94 148.938C357.971 149.844 358.268 150.578 358.831 151.141C359.425 151.672 360.128 152.078 360.94 152.36C361.753 152.641 362.596 152.828 363.471 152.922C364.346 152.985 365.128 153.016 365.815 153.016C366.534 153.016 367.206 152.953 367.831 152.828C368.456 152.703 369.081 152.563 369.706 152.407C370.331 152.25 370.956 152.11 371.581 151.985C372.237 151.86 372.925 151.797 373.643 151.797C373.925 151.797 374.206 151.813 374.487 151.844C374.768 151.875 375.034 151.953 375.284 152.078C375.534 152.172 375.737 152.344 375.893 152.594C376.05 152.813 376.128 153.094 376.128 153.438C376.128 154.032 375.909 154.532 375.471 154.938C375.034 155.313 374.471 155.641 373.784 155.922C373.128 156.203 372.393 156.422 371.581 156.578C370.768 156.703 369.971 156.813 369.19 156.907C368.44 156.969 367.737 157 367.081 157C366.456 157.032 365.987 157.047 365.675 157.047C363.675 157.047 361.878 156.735 360.284 156.11C358.69 155.453 357.346 154.563 356.253 153.438C355.159 152.282 354.315 150.907 353.721 149.313C353.159 147.688 352.878 145.891 352.878 143.922ZM357.846 140.875C357.846 141.969 357.987 142.766 358.268 143.266C358.581 143.766 359.315 144.016 360.471 144.016C361.284 144.016 362.081 143.875 362.862 143.594C363.643 143.282 364.346 142.86 364.971 142.328C365.628 141.797 366.143 141.172 366.518 140.453C366.893 139.735 367.081 138.953 367.081 138.11C367.081 137.641 367.034 137.157 366.94 136.657C366.878 136.157 366.721 135.703 366.471 135.297C366.221 134.86 365.893 134.516 365.487 134.266C365.112 133.985 364.612 133.844 363.987 133.844C363.05 133.844 362.19 134.063 361.409 134.5C360.659 134.907 360.018 135.453 359.487 136.141C358.956 136.797 358.55 137.547 358.268 138.391C357.987 139.203 357.846 140.032 357.846 140.875ZM379.199 130.422C379.199 129.516 379.136 128.641 379.011 127.797C378.886 126.922 378.855 126.157 378.918 125.5C378.98 124.813 379.215 124.266 379.621 123.86C380.058 123.453 380.84 123.25 381.965 123.25C382.308 123.969 382.636 125.063 382.949 126.532C383.293 128 383.621 129.688 383.933 131.594C384.246 133.5 384.543 135.578 384.824 137.828C385.105 140.047 385.355 142.282 385.574 144.532C385.824 146.782 386.027 149 386.183 151.188C386.371 153.344 386.511 155.313 386.605 157.094C385.574 157.782 384.746 157.828 384.121 157.235C383.496 156.641 382.98 155.641 382.574 154.235C382.168 152.797 381.855 151.063 381.636 149.032C381.418 146.969 381.199 144.844 380.98 142.657C380.793 140.438 380.558 138.266 380.277 136.141C379.996 133.985 379.636 132.078 379.199 130.422ZM388.083 147.438C388.083 145.5 388.536 143.703 389.442 142.047C390.348 140.36 391.536 138.922 393.005 137.735C394.505 136.516 396.176 135.563 398.02 134.875C399.895 134.188 401.786 133.844 403.692 133.844C404.755 133.844 405.692 134.188 406.505 134.875C407.348 135.563 408.051 136.407 408.614 137.407C409.176 138.375 409.598 139.407 409.88 140.5C410.192 141.594 410.348 142.547 410.348 143.36C410.348 145.11 409.926 146.813 409.083 148.469C408.239 150.094 407.145 151.547 405.801 152.828C404.458 154.078 402.942 155.094 401.255 155.875C399.567 156.657 397.88 157.047 396.192 157.047C394.692 157.047 393.426 156.797 392.395 156.297C391.364 155.766 390.536 155.078 389.911 154.235C389.286 153.36 388.817 152.344 388.505 151.188C388.223 150 388.083 148.75 388.083 147.438ZM392.067 147.907C392.067 148.719 392.13 149.438 392.255 150.063C392.411 150.657 392.661 151.172 393.005 151.61C393.38 152.047 393.864 152.391 394.458 152.641C395.051 152.86 395.786 152.969 396.661 152.969C397.817 152.969 398.973 152.657 400.13 152.032C401.286 151.375 402.317 150.563 403.223 149.594C404.161 148.594 404.911 147.5 405.473 146.313C406.036 145.125 406.317 143.969 406.317 142.844C406.317 142.344 406.27 141.797 406.176 141.203C406.083 140.61 405.926 140.063 405.708 139.563C405.489 139.063 405.176 138.641 404.77 138.297C404.364 137.953 403.848 137.782 403.223 137.782C402.661 137.782 401.989 137.969 401.208 138.344C400.458 138.719 399.661 139.203 398.817 139.797C398.005 140.391 397.192 141.063 396.38 141.813C395.598 142.563 394.88 143.313 394.223 144.063C393.567 144.813 393.036 145.532 392.63 146.219C392.255 146.907 392.067 147.469 392.067 147.907ZM411.216 139.657C411.216 136.625 411.92 134.375 413.326 132.907C414.732 131.438 416.888 130.703 419.795 130.703C420.982 130.703 422.201 130.813 423.451 131.032C424.732 131.25 425.904 131.641 426.966 132.203C428.029 132.735 428.888 133.485 429.545 134.453C430.232 135.422 430.576 136.672 430.576 138.203C430.576 139.891 430.201 141.485 429.451 142.985C428.732 144.453 427.81 145.844 426.685 147.157C425.591 148.438 424.373 149.641 423.029 150.766C421.716 151.86 420.482 152.907 419.326 153.907C419.263 154.032 419.201 154.297 419.138 154.703C419.107 155.078 419.091 155.328 419.091 155.453C419.091 156.485 419.388 157.516 419.982 158.547C420.607 159.61 421.279 160.672 421.998 161.735C422.716 162.828 423.373 163.953 423.966 165.11C424.56 166.266 424.857 167.469 424.857 168.719C424.857 169.469 424.701 169.907 424.388 170.032C424.076 170.188 423.42 170.266 422.42 170.266C421.795 170.016 421.17 169.422 420.545 168.485C419.951 167.578 419.341 166.453 418.716 165.11C418.123 163.766 417.529 162.25 416.935 160.563C416.373 158.907 415.826 157.219 415.295 155.5C414.795 153.75 414.31 152.032 413.841 150.344C413.404 148.625 413.013 147.047 412.67 145.61C412.326 144.172 412.013 142.938 411.732 141.907C411.482 140.844 411.31 140.094 411.216 139.657ZM415.201 140.078C415.201 140.547 415.232 141.235 415.295 142.141C415.357 143.016 415.482 143.891 415.67 144.766C415.888 145.641 416.201 146.407 416.607 147.063C417.013 147.688 417.576 148 418.295 148C419.263 148 420.232 147.672 421.201 147.016C422.201 146.36 423.076 145.532 423.826 144.532C424.607 143.532 425.232 142.469 425.701 141.344C426.201 140.188 426.451 139.141 426.451 138.203C426.451 137.422 426.263 136.813 425.888 136.375C425.513 135.907 425.029 135.547 424.435 135.297C423.873 135.016 423.263 134.844 422.607 134.782C421.951 134.688 421.326 134.641 420.732 134.641C418.951 134.641 417.576 135.125 416.607 136.094C415.67 137.032 415.201 138.36 415.201 140.078ZM432.381 139.657C432.381 136.625 433.085 134.375 434.491 132.907C435.897 131.438 438.053 130.703 440.96 130.703C442.147 130.703 443.366 130.813 444.616 131.032C445.897 131.25 447.069 131.641 448.131 132.203C449.194 132.735 450.053 133.485 450.71 134.453C451.397 135.422 451.741 136.672 451.741 138.203C451.741 139.891 451.366 141.485 450.616 142.985C449.897 144.453 448.975 145.844 447.85 147.157C446.756 148.438 445.538 149.641 444.194 150.766C442.881 151.86 441.647 152.907 440.491 153.907C440.428 154.032 440.366 154.297 440.303 154.703C440.272 155.078 440.256 155.328 440.256 155.453C440.256 156.485 440.553 157.516 441.147 158.547C441.772 159.61 442.444 160.672 443.163 161.735C443.881 162.828 444.538 163.953 445.131 165.11C445.725 166.266 446.022 167.469 446.022 168.719C446.022 169.469 445.866 169.907 445.553 170.032C445.241 170.188 444.585 170.266 443.585 170.266C442.96 170.016 442.335 169.422 441.71 168.485C441.116 167.578 440.506 166.453 439.881 165.11C439.288 163.766 438.694 162.25 438.1 160.563C437.538 158.907 436.991 157.219 436.46 155.5C435.96 153.75 435.475 152.032 435.006 150.344C434.569 148.625 434.178 147.047 433.835 145.61C433.491 144.172 433.178 142.938 432.897 141.907C432.647 140.844 432.475 140.094 432.381 139.657ZM436.366 140.078C436.366 140.547 436.397 141.235 436.46 142.141C436.522 143.016 436.647 143.891 436.835 144.766C437.053 145.641 437.366 146.407 437.772 147.063C438.178 147.688 438.741 148 439.46 148C440.428 148 441.397 147.672 442.366 147.016C443.366 146.36 444.241 145.532 444.991 144.532C445.772 143.532 446.397 142.469 446.866 141.344C447.366 140.188 447.616 139.141 447.616 138.203C447.616 137.422 447.428 136.813 447.053 136.375C446.678 135.907 446.194 135.547 445.6 135.297C445.038 135.016 444.428 134.844 443.772 134.782C443.116 134.688 442.491 134.641 441.897 134.641C440.116 134.641 438.741 135.125 437.772 136.094C436.835 137.032 436.366 138.36 436.366 140.078ZM453.546 143.922C453.546 142.235 453.75 140.547 454.156 138.86C454.562 137.172 455.203 135.657 456.078 134.313C456.984 132.969 458.14 131.875 459.546 131.032C460.984 130.188 462.718 129.766 464.75 129.766C465.906 129.766 466.921 129.985 467.796 130.422C468.671 130.828 469.406 131.375 470 132.063C470.593 132.75 471.031 133.563 471.312 134.5C471.625 135.407 471.781 136.36 471.781 137.36C471.781 138.953 471.406 140.5 470.656 142C469.937 143.5 468.953 144.828 467.703 145.985C466.484 147.11 465.078 147.969 463.484 148.563C461.89 149.125 460.265 149.25 458.609 148.938C458.64 149.844 458.937 150.578 459.5 151.141C460.093 151.672 460.796 152.078 461.609 152.36C462.421 152.641 463.265 152.828 464.14 152.922C465.015 152.985 465.796 153.016 466.484 153.016C467.203 153.016 467.875 152.953 468.5 152.828C469.125 152.703 469.75 152.563 470.375 152.407C471 152.25 471.625 152.11 472.25 151.985C472.906 151.86 473.593 151.797 474.312 151.797C474.593 151.797 474.875 151.813 475.156 151.844C475.437 151.875 475.703 151.953 475.953 152.078C476.203 152.172 476.406 152.344 476.562 152.594C476.718 152.813 476.796 153.094 476.796 153.438C476.796 154.032 476.578 154.532 476.14 154.938C475.703 155.313 475.14 155.641 474.453 155.922C473.796 156.203 473.062 156.422 472.25 156.578C471.437 156.703 470.64 156.813 469.859 156.907C469.109 156.969 468.406 157 467.75 157C467.125 157.032 466.656 157.047 466.343 157.047C464.343 157.047 462.546 156.735 460.953 156.11C459.359 155.453 458.015 154.563 456.921 153.438C455.828 152.282 454.984 150.907 454.39 149.313C453.828 147.688 453.546 145.891 453.546 143.922ZM458.515 140.875C458.515 141.969 458.656 142.766 458.937 143.266C459.25 143.766 459.984 144.016 461.14 144.016C461.953 144.016 462.75 143.875 463.531 143.594C464.312 143.282 465.015 142.86 465.64 142.328C466.296 141.797 466.812 141.172 467.187 140.453C467.562 139.735 467.75 138.953 467.75 138.11C467.75 137.641 467.703 137.157 467.609 136.657C467.546 136.157 467.39 135.703 467.14 135.297C466.89 134.86 466.562 134.516 466.156 134.266C465.781 133.985 465.281 133.844 464.656 133.844C463.718 133.844 462.859 134.063 462.078 134.5C461.328 134.907 460.687 135.453 460.156 136.141C459.625 136.797 459.218 137.547 458.937 138.391C458.656 139.203 458.515 140.032 458.515 140.875ZM478.743 137.266C478.743 136.985 478.758 136.703 478.79 136.422C478.821 136.11 478.883 135.844 478.977 135.625C479.071 135.375 479.211 135.172 479.399 135.016C479.618 134.86 479.915 134.782 480.29 134.782C480.602 134.782 480.946 135.032 481.321 135.532C481.727 136 482.133 136.61 482.54 137.36C482.946 138.078 483.336 138.875 483.711 139.75C484.118 140.625 484.461 141.438 484.743 142.188C485.055 142.907 485.305 143.532 485.493 144.063C485.68 144.594 485.79 144.875 485.821 144.907C486.227 143.813 486.68 142.625 487.18 141.344C487.68 140.063 488.29 138.875 489.008 137.782C489.758 136.657 490.633 135.719 491.633 134.969C492.665 134.219 493.915 133.844 495.383 133.844C496.133 133.844 496.836 133.969 497.493 134.219C498.18 134.438 498.774 134.782 499.274 135.25C499.805 135.688 500.227 136.219 500.54 136.844C500.852 137.469 501.008 138.188 501.008 139C501.008 139.688 500.727 140.172 500.165 140.453C499.633 140.735 499.024 140.875 498.336 140.875H497.868L495.852 138.86C495.79 138.86 495.743 138.844 495.711 138.813C495.649 138.813 495.586 138.813 495.524 138.813C495.493 138.782 495.446 138.766 495.383 138.766C494.29 138.766 493.43 139.078 492.805 139.703C492.211 140.297 491.758 141.047 491.446 141.953C491.133 142.828 490.93 143.766 490.836 144.766C490.774 145.735 490.743 146.625 490.743 147.438C490.743 148.063 490.805 148.703 490.93 149.36C491.055 149.985 491.196 150.61 491.352 151.235C491.508 151.828 491.649 152.453 491.774 153.11C491.899 153.735 491.961 154.391 491.961 155.078C491.961 156.391 491.258 157.047 489.852 157.047C489.071 157.047 488.258 156.641 487.415 155.828C486.571 154.985 485.727 153.922 484.883 152.641C484.071 151.36 483.29 149.953 482.54 148.422C481.79 146.86 481.133 145.344 480.571 143.875C480.008 142.407 479.555 141.078 479.211 139.891C478.899 138.703 478.743 137.828 478.743 137.266Z" fill="black"/>
<path d="M58.2 70.4C58.2 76.8 55.7667 81.8667 50.9 85.6C46.0333 89.3333 40.1333 91.2 33.2 91.2C28.5333 91.2 24.6667 90.0333 21.6 87.7C18.6 85.3 16.9333 83.2667 16.6 81.6C17.3333 79.4 18.9 76.9333 21.3 74.2C23.7 71.4667 25.8667 69.8 27.8 69.2C31.2 71.4 34.3667 76.3 37.3 83.9C41.6333 83.7667 43.8 81.4 43.8 76.8C43.8 74.2667 42.7667 71.1667 40.7 67.5C38.7 63.7667 36.5 60.3 34.1 57.1C31.7 53.8333 29.4667 50.2 27.4 46.2C25.4 42.1333 24.4 38.5333 24.4 35.4C24.4 30.3333 26.4333 26.3333 30.5 23.4C34.6333 20.4667 39.2667 19 44.4 19C49.5333 19 53.5 20.1 56.3 22.3C59.1667 24.5 60.6 27 60.6 29.8C60.6 32.6 59.5333 35.4667 57.4 38.4C55.2667 41.3333 53.1333 43.6667 51 45.4L47.8 48C48.6 49.0667 49.5667 50.4333 50.7 52.1C51.8333 53.7667 53.3667 56.6 55.3 60.6C57.2333 64.6 58.2 67.8667 58.2 70.4ZM50.5 37.6C51.4333 36.7333 52.2667 35.7 53 34.5C53.7333 33.2333 54.1 31.9333 54.1 30.6C54.1 29.2 53.3 28.0333 51.7 27.1C50.1 26.1667 48.1667 25.7 45.9 25.7C43.7 25.7 41.8333 26.2333 40.3 27.3C38.8333 28.3 38.1 29.5333 38.1 31C38.1 32.4 38.5667 34.0667 39.5 36C40.5 37.8667 41.4667 39.4333 42.4 40.7L43.9 42.6C44.5667 42.2667 45.6 41.5667 47 40.5C48.4667 39.4333 49.6333 38.4667 50.5 37.6ZM92.0891 48.6C92.2224 48.4667 92.5891 47.6 93.1891 46C96.3224 46 100.522 46.9333 105.789 48.8C104.122 54.3333 102.789 60.1333 101.789 66.2C100.789 72.2 100.289 76.5 100.289 79.1C100.289 81.6333 100.556 82.9 101.089 82.9C101.489 82.9 102.956 82.2667 105.489 81L106.689 80.4L108.489 83.9C107.889 84.4333 107.089 85.1 106.089 85.9C105.156 86.7 103.356 87.8 100.689 89.2C98.0224 90.5333 95.6224 91.2 93.4891 91.2C89.3557 91.2 86.9557 89.3333 86.2891 85.6C82.0224 89.3333 78.1557 91.2 74.6891 91.2C71.2891 91.2 68.3891 89.8667 65.9891 87.2C63.6557 84.5333 62.4891 80.3333 62.4891 74.6C62.4891 65.6667 64.3224 58.6333 67.9891 53.5C71.6557 48.3 76.0891 45.7 81.2891 45.7C85.0224 45.7 88.6224 46.6667 92.0891 48.6ZM80.6891 82.7C82.2891 82.7 84.0891 82.0667 86.0891 80.8C86.5557 71.4 88.1224 62.1 90.7891 52.9C88.7891 52.0333 87.0891 51.6 85.6891 51.6C83.2891 51.6 81.2224 53.9667 79.4891 58.7C77.8224 63.3667 76.9891 68.5333 76.9891 74.2C76.9891 79.8667 78.2224 82.7 80.6891 82.7ZM134.236 20.2C134.236 25.2667 132.536 35.2 129.136 50C133.136 47.1333 136.736 45.7 139.936 45.7C143.203 45.7 145.969 47.0667 148.236 49.8C150.569 52.4667 151.736 56.5667 151.736 62.1C151.736 71.3667 149.903 78.5333 146.236 83.6C142.636 88.6667 138.236 91.2 133.036 91.2C131.103 91.2 129.136 90.9667 127.136 90.5C125.203 90.0333 123.736 89.5333 122.736 89L121.236 88.3C116.969 89.7667 112.803 90.5 108.736 90.5C108.336 90.1667 108.136 88.5667 108.136 85.7C108.136 82.7667 110.003 73.1667 113.736 56.9C117.469 40.5667 119.336 29.4 119.336 23.4C119.336 22.3333 119.169 20.9667 118.836 19.3C124.036 17.5 129.003 16.6 133.736 16.6C134.069 17.5333 134.236 18.7333 134.236 20.2ZM133.336 54.2C132.069 54.2 130.169 54.8 127.636 56C124.569 68.9333 122.903 78.2 122.636 83.8C124.636 84.6667 126.536 85.1 128.336 85.1C130.869 85.1 132.969 82.7667 134.636 78.1C136.369 73.4333 137.236 68.3 137.236 62.7C137.236 57.0333 135.936 54.2 133.336 54.2ZM184.183 48.6C184.316 48.4667 184.683 47.6 185.283 46C188.416 46 192.616 46.9333 197.883 48.8C196.216 54.3333 194.883 60.1333 193.883 66.2C192.883 72.2 192.383 76.5 192.383 79.1C192.383 81.6333 192.649 82.9 193.183 82.9C193.583 82.9 195.049 82.2667 197.583 81L198.783 80.4L200.583 83.9C199.983 84.4333 199.183 85.1 198.183 85.9C197.249 86.7 195.449 87.8 192.783 89.2C190.116 90.5333 187.716 91.2 185.583 91.2C181.449 91.2 179.049 89.3333 178.383 85.6C174.116 89.3333 170.249 91.2 166.783 91.2C163.383 91.2 160.483 89.8667 158.083 87.2C155.749 84.5333 154.583 80.3333 154.583 74.6C154.583 65.6667 156.416 58.6333 160.083 53.5C163.749 48.3 168.183 45.7 173.383 45.7C177.116 45.7 180.716 46.6667 184.183 48.6ZM172.783 82.7C174.383 82.7 176.183 82.0667 178.183 80.8C178.649 71.4 180.216 62.1 182.883 52.9C180.883 52.0333 179.183 51.6 177.783 51.6C175.383 51.6 173.316 53.9667 171.583 58.7C169.916 63.3667 169.083 68.5333 169.083 74.2C169.083 79.8667 170.316 82.7 172.783 82.7ZM203.13 90.3H201.23C201.23 87.1667 202.163 81.1667 204.03 72.3C205.963 63.4333 206.93 58.4 206.93 57.2C206.93 55 205.996 52.6667 204.13 50.2L203.23 49L203.33 47.7C206.93 46.7 212.696 46.2 220.63 46.2C221.496 47.3333 221.963 49.4 222.03 52.4C227.83 47.9333 232.73 45.7 236.73 45.7C239.13 45.7 241.03 46.5333 242.43 48.2C243.896 49.8667 244.63 51.9667 244.63 54.5C244.63 56.9667 243.863 61.2667 242.33 67.4C240.796 73.5333 240.03 77.6667 240.03 79.8C240.03 81.8667 240.296 82.9 240.83 82.9C241.23 82.9 242.63 82.2667 245.03 81L246.23 80.4L248.03 83.9C247.43 84.4333 246.63 85.1 245.63 85.9C244.63 86.7 242.763 87.8 240.03 89.2C237.363 90.5333 234.963 91.2 232.83 91.2C227.963 91.2 225.53 88.4333 225.53 82.9C225.53 80.5667 226.263 76.2667 227.73 70C229.263 63.7333 230.03 59.7 230.03 57.9C230.03 56.1 229.463 55.2 228.33 55.2C226.396 55.2 224.03 56.0333 221.23 57.7C221.03 58.8333 220.363 61.8333 219.23 66.7C216.896 77.1667 215.73 84.5667 215.73 88.9C213.396 89.8333 209.196 90.3 203.13 90.3ZM300.13 108.2C297.264 110 294.697 111.133 292.43 111.6C290.23 112.133 287.83 112.4 285.23 112.4C282.63 112.4 280.397 111.633 278.53 110.1C276.73 108.567 275.83 106.533 275.83 104C275.83 101.467 276.664 99.1667 278.33 97.1C280.064 95.0333 282.13 93.4 284.53 92.2C289.397 89.6667 293.83 88 297.83 87.2L300.43 86.7C300.497 86.4333 300.897 85.1 301.63 82.7C302.364 80.3 302.897 78.4333 303.23 77.1C294.764 82.1667 287.797 84.7 282.33 84.7C279.064 84.7 276.364 83.6667 274.23 81.6C272.097 79.4667 271.03 76.4667 271.03 72.6C271.03 68.6667 272.297 61.6333 274.83 51.5C277.364 41.3 278.63 34.5 278.63 31.1C278.63 28.9 277.63 26.4 275.63 23.6L274.63 22.2L274.93 20.7C278.93 19.5667 285.097 19 293.43 19C294.364 21 294.83 23.7 294.83 27.1C294.83 30.5 293.564 37.7 291.03 48.7C288.497 59.6333 287.23 65.9667 287.23 67.7C287.23 71.2333 288.43 73 290.83 73C295.364 73 300.197 71.7 305.33 69.1C309.397 52.3667 312.164 36.5667 313.63 21.7C317.03 19.9667 321.697 19.1 327.63 19.1H329.53C329.53 22.6333 328.93 27.5333 327.73 33.8C326.197 41.7333 323.83 53.7333 320.63 69.8C319.23 77 317.397 83.3 315.13 88.7C312.864 94.0333 310.53 98.1667 308.13 101.1C305.73 104.033 303.064 106.4 300.13 108.2ZM285.23 105.7C287.564 105.7 289.997 104.4 292.53 101.8C295.064 99.2667 297.13 96.2333 298.73 92.7C295.597 93.0333 292.064 94.2333 288.13 96.3C284.264 98.4333 282.33 100.6 282.33 102.8C282.33 103.6 282.597 104.267 283.13 104.8C283.73 105.4 284.43 105.7 285.23 105.7ZM347.193 79.8C347.193 81.2667 347.56 82 348.293 82C348.693 82 350.626 81.1333 354.093 79.4L355.993 83.1C349.993 88.5 344.693 91.2 340.093 91.2C337.226 91.2 335.026 90.2333 333.493 88.3C332.026 86.3667 331.293 83.9667 331.293 81.1C331.293 78.2333 332.893 70.4 336.093 57.6C339.36 44.7333 341.16 35.9 341.493 31.1C341.493 30.0333 341.126 28.7667 340.393 27.3C339.726 25.7667 339.026 24.5333 338.293 23.6L337.293 22.2L337.593 20.7C341.393 19.5667 347.66 19 356.393 19C357.193 20.5333 357.593 22.7667 357.593 25.7C357.593 28.5667 355.86 36.9333 352.393 50.8C348.926 64.6667 347.193 74.3333 347.193 79.8ZM404.813 85.2C404.013 87.2667 402.746 88.9 401.013 90.1C399.346 91.3 397.346 91.9 395.013 91.9C392.746 91.9 389.313 90.5 384.713 87.7C380.179 84.9 376.546 83.1 373.813 82.3C372.013 84.7 369.979 86.7 367.713 88.3C365.446 89.9 363.879 90.7 363.013 90.7C362.346 90.7 361.013 89.2667 359.013 86.4C357.013 83.4667 356.012 81.3667 356.012 80.1C356.012 79.3667 357.046 78.2667 359.113 76.8C361.246 75.3333 363.479 74.3333 365.813 73.8C367.479 69.7333 369.213 63.7333 371.013 55.8C372.813 47.8 374.213 39.5667 375.213 31.1C375.213 30.0333 374.846 28.7667 374.113 27.3C373.446 25.7667 372.746 24.5333 372.013 23.6L371.013 22.2L371.313 20.7C375.313 19.5667 381.879 19 391.013 19C391.879 20.4667 392.313 22.7 392.313 25.7C392.313 28.7 391.446 33.1667 389.713 39.1C387.979 45.0333 385.579 52.1667 382.512 60.5C379.513 68.7667 377.779 73.6667 377.313 75.2C377.579 75.2667 378.413 75.5 379.813 75.9C381.213 76.3 382.113 76.5667 382.512 76.7C382.979 76.7667 383.846 76.9667 385.113 77.3C386.379 77.5667 387.379 77.7667 388.113 77.9C388.846 77.9667 389.813 78.0667 391.013 78.2C393.079 78.5333 395.013 78.7 396.813 78.7C398.679 78.7 400.013 78.2333 400.813 77.3L403.613 72.1L406.913 72.9C406.913 77.2333 406.213 81.3333 404.813 85.2ZM483.91 91.2C481.443 91.2 479.443 90.3333 477.91 88.6C476.377 86.8 475.61 84.4 475.61 81.4C475.61 78.3333 476.977 70.7667 479.71 58.7C482.51 46.6333 483.91 38.9333 483.91 35.6C483.91 32.2667 482.61 30.6 480.01 30.6C476.41 30.6 472.443 32.2 468.11 35.4C467.643 39 466.277 45.3 464.01 54.3C461.743 63.2333 460.21 69.8667 459.41 74.2C458.677 78.4667 458.31 81.7667 458.31 84.1C458.31 86.4333 458.343 87.8667 458.41 88.4C455.81 89.7333 451.177 90.4 444.51 90.4H442.61C442.61 84.8 444.177 75.2667 447.31 61.8C450.51 48.0667 452.11 39.4333 452.11 35.9C452.11 32.3667 450.877 30.6 448.41 30.6C444.81 30.6 440.61 32.3333 435.81 35.8C435.077 39.4667 433.71 45.4333 431.71 53.7C427.243 72.6333 425.01 84.2 425.01 88.4C422.41 89.7333 417.81 90.4 411.21 90.4H409.31C409.577 87.4 411.343 78.6 414.61 64C417.877 49.3333 419.91 38.3667 420.71 31.1C420.71 30.0333 420.343 28.7667 419.61 27.3C418.943 25.7667 418.243 24.5333 417.51 23.6L416.51 22.2L416.81 20.7C420.543 19.5667 426.977 19 436.11 19C436.977 20.6 437.41 22.6333 437.41 25.1C437.41 25.6333 437.277 27.0333 437.01 29.3C444.677 22.4333 451.543 19 457.61 19C460.343 19 462.643 19.9333 464.51 21.8C466.377 23.6667 467.577 26.1 468.11 29.1C476.043 22.3667 482.777 19 488.31 19C491.777 19 494.577 20.1333 496.71 22.4C498.843 24.6667 499.91 27.8333 499.91 31.9C499.91 35.9667 498.477 43.7333 495.61 55.2C492.81 66.6 491.41 74.5667 491.41 79.1C491.41 81.0333 491.743 82 492.41 82C493.01 82 494.643 81.3333 497.31 80L498.71 79.4L500.71 83.1C497.843 85.5667 494.943 87.5333 492.01 89C489.143 90.4667 486.443 91.2 483.91 91.2ZM427.71 51C427.643 51.1333 427.61 51.3 427.61 51.5L427.71 51ZM507.836 88.7C507.369 90.1667 506.303 90.9 504.636 90.9C503.036 90.9 501.203 90 499.136 88.2C501.136 82.3333 505.369 72.9 511.836 59.9C518.303 46.8333 522.503 37.0667 524.436 30.6C524.703 29.5333 524.836 28.8 524.836 28.4C524.836 27.4 524.103 25.8667 522.636 23.8L521.836 22.7L522.036 21.4C527.703 19.8 533.969 19 540.836 19L546.936 19.4C547.669 20.4 548.236 21.9333 548.636 24C549.703 29.0667 550.236 42.1 550.236 63.1C550.236 71.2333 550.936 76.9667 552.336 80.3C552.869 81.5667 553.403 82.2 553.936 82.2C554.469 82.2 556.103 81.5333 558.836 80.2L560.136 79.6L562.136 83.2C559.603 85.6667 556.769 87.6333 553.636 89.1C550.569 90.5 547.736 91.2 545.136 91.2C538.403 91.2 535.036 85.9667 535.036 75.5V67.6C533.303 67.2 530.669 67 527.136 67C523.603 67 519.736 67.3333 515.536 68C512.203 75.7333 509.636 82.6333 507.836 88.7ZM535.236 60.8L535.336 49.2C535.336 39.0667 534.903 32.2 534.036 28.6C533.503 28.6 533.103 28.6667 532.836 28.8C530.969 33.9333 529.203 38.3 527.536 41.9C525.936 45.4333 524.169 49.2333 522.236 53.3C520.369 57.3 519.203 59.8 518.736 60.8H535.236ZM596.914 91.3C594.181 91.3 589.881 89.9667 584.014 87.3C578.147 84.6333 573.147 83.3 569.014 83.3C567.814 83.3 566.014 84.5333 563.614 87C561.214 89.4667 559.714 90.7 559.114 90.7C558.514 90.7 557.614 90.3333 556.414 89.6C555.214 88.8667 554.314 88.1333 553.714 87.4C556.381 82 562.414 73.6333 571.814 62.3C581.214 50.9667 588.314 41.6667 593.114 34.4C586.581 33.5333 581.447 33.1 577.714 33.1C572.114 33.1 568.114 33.7667 565.714 35.1L564.514 35.8C564.381 35.8 564.114 35.2667 563.714 34.2C562.514 31 561.914 28.2 561.914 25.8C561.914 23.4 562.114 21.7333 562.514 20.8C565.247 19.6 568.314 19 571.714 19C575.114 19 579.714 19.4 585.514 20.2C591.381 20.9333 596.014 21.3 599.414 21.3C602.814 21.3 605.847 21 608.514 20.4L610.414 24.9C606.147 31.7 600.214 39.7667 592.614 49.1C585.014 58.4333 579.481 65.7667 576.014 71.1C578.814 71.3 582.814 72.2333 588.014 73.9C593.214 75.5 596.814 76.3 598.814 76.3C600.814 76.3 602.214 75.9667 603.014 75.3C603.814 74.6333 604.847 73.1333 606.114 70.8L609.314 71.8C608.981 76.5333 608.347 80.4 607.414 83.4C605.814 88.6667 602.314 91.3 596.914 91.3Z" fill="#6B4C5A"/>
<path d="M635.561 91.2C633.228 91.2 631.428 90.5 630.161 89.1C628.894 87.7 628.261 85.8333 628.261 83.5C628.261 81.1667 629.128 79.1667 630.861 77.5C632.594 75.7667 634.628 74.9 636.961 74.9C639.361 74.9 641.194 75.6 642.461 77C643.728 78.3333 644.361 80.1667 644.361 82.5C644.361 84.7667 643.461 86.8 641.661 88.6C639.928 90.3333 637.894 91.2 635.561 91.2Z" fill="white"/>
<defs>
<filter id="filter0_f_16_6" x="0" y="0" width="667.905" height="200" filterUnits="userSpaceOnUse" color-interpolation-filters="sRGB">
<feFlood flood-opacity="0" result="BackgroundImageFix"/>
<feBlend mode="normal" in="SourceGraphic" in2="BackgroundImageFix" result="shape"/>
<feGaussianBlur stdDeviation="2" result="effect1_foregroundBlur_16_6"/>
</filter>
</defs>
</svg>
